<svg width="25" height="24" viewBox="0 0 25 24" fill="none" xmlns="http://www.w3.org/2000/svg">
<path d="M12.5 11.4963C12.3936 11.2963 7.95492 3 4.00417 3C1.83647 3 2.50456 8 3.00443 10.5C3.20653 11.5108 4.00417 14.5 8.503 14C8.503 14 4.50404 14.5 4.50404 17C4.50404 18.5 7.00339 21 9.00287 21C10.9606 21 12.4391 16.6859 12.5 16.5058C12.5609 16.6859 14.0394 21 15.9971 21C17.9966 21 20.496 18.5 20.496 17C20.496 14.5 16.497 14 16.497 14C20.9958 14.5 21.7935 11.5108 21.9956 10.5C22.4954 8 23.1635 3 20.9958 3C17.0451 3 12.6064 11.2963 12.5 11.4963Z" stroke="#F7F8F7" stroke-width="1.5" stroke-linejoin="round"/>
</svg>
