<svg width="25" height="24" viewBox="0 0 25 24" fill="none" xmlns="http://www.w3.org/2000/svg">
<path d="M10.5 20.5675C7.07143 21.7248 4.21429 20.5675 2.5 17" stroke="#F7F8F7" stroke-width="1.5" stroke-linecap="round" stroke-linejoin="round"/>
<path d="M10.5 22V18.7579C10.5 18.1596 10.6839 17.6396 10.9804 17.1699C11.1838 16.8476 11.0445 16.3904 10.6771 16.2894C7.63394 15.4528 5.5 14.1077 5.5 9.64606C5.5 8.48611 5.88005 7.39556 6.54811 6.4464C6.71437 6.21018 6.79749 6.09208 6.81748 5.9851C6.83746 5.87813 6.80272 5.73852 6.73322 5.45932C6.45038 4.32292 6.46871 3.11619 6.89322 2.02823C6.89322 2.02823 7.77042 1.74242 9.76698 2.98969C10.2228 3.27447 10.4507 3.41686 10.6515 3.44871C10.8522 3.48056 11.1206 3.41384 11.6573 3.28041C12.3913 3.09795 13.1476 3 14 3C14.8524 3 15.6087 3.09795 16.3427 3.28041C16.8794 3.41384 17.1478 3.48056 17.3485 3.44871C17.5493 3.41686 17.7772 3.27447 18.233 2.98969C20.2296 1.74242 21.1068 2.02823 21.1068 2.02823C21.5313 3.11619 21.5496 4.32292 21.2668 5.45932C21.1973 5.73852 21.1625 5.87813 21.1825 5.9851C21.2025 6.09207 21.2856 6.21019 21.4519 6.4464C22.1199 7.39556 22.5 8.48611 22.5 9.64606C22.5 14.1077 20.3661 15.4528 17.3229 16.2894C16.9555 16.3904 16.8162 16.8476 17.0196 17.1699C17.3161 17.6396 17.5 18.1596 17.5 18.7579V22" stroke="#F7F8F7" stroke-width="1.5" stroke-linecap="round" stroke-linejoin="round"/>
</svg>
