<svg width="25" height="24" viewBox="0 0 25 24" fill="none" xmlns="http://www.w3.org/2000/svg">
<path d="M3 12C3 7.52166 3 5.28249 4.39124 3.89124C5.78249 2.5 8.02166 2.5 12.5 2.5C16.9783 2.5 19.2175 2.5 20.6088 3.89124C22 5.28249 22 7.52166 22 12C22 16.4783 22 18.7175 20.6088 20.1088C19.2175 21.5 16.9783 21.5 12.5 21.5C8.02166 21.5 5.78249 21.5 4.39124 20.1088C3 18.7175 3 16.4783 3 12Z" stroke="#F7F8F7" stroke-width="1.5" stroke-linejoin="round"/>
<path d="M17 12C17 14.4853 14.9853 16.5 12.5 16.5C10.0147 16.5 8 14.4853 8 12C8 9.51472 10.0147 7.5 12.5 7.5C14.9853 7.5 17 9.51472 17 12Z" stroke="#F7F8F7" stroke-width="1.5"/>
<path d="M18.0078 6.5H17.9988" stroke="#F7F8F7" stroke-width="2" stroke-linecap="round" stroke-linejoin="round"/>
</svg>
