<svg width="25" height="24" viewBox="0 0 25 24" fill="none" xmlns="http://www.w3.org/2000/svg">
<path d="M17.5 13.5V8C17.5 6.61929 16.3807 5.5 15 5.5C13.6193 5.5 12.5 6.61929 12.5 8M12.5 8V11.5M12.5 8C12.5 6.61929 11.3807 5.5 10 5.5C8.61929 5.5 7.5 6.61929 7.5 8V13.5" stroke="#F7F8F7" stroke-width="1.5" stroke-linecap="round" stroke-linejoin="round"/>
<path d="M13.5 16.9954C15.5099 16.9954 17.39 16.6876 18.9949 16.1525C20.6275 15.6081 21.5 13.9512 21.5 12.2302V7.52349C21.5 5.34784 20.3297 3.2779 18.2281 2.715C16.5259 2.25905 14.5744 2 12.5 2C10.4256 2 8.47414 2.25905 6.77189 2.715C4.67033 3.2779 3.5 5.34785 3.5 7.52349V14.4961C3.5 22.4937 11.5 21.9938 11.5 21.9938C14 21.9938 15.5 21 15.5 21V20C15.5 20 14 20.4943 11.5 20.4943C6.18009 20.4943 7.56011 15.9957 7.56011 15.9957C9.25781 16.627 11.3012 16.9954 13.5 16.9954Z" stroke="#F7F8F7" stroke-width="1.5" stroke-linecap="round" stroke-linejoin="round"/>
</svg>
