<?xml version="1.0" encoding="UTF-8"?>
<svg id="Layer_1" xmlns="http://www.w3.org/2000/svg" viewBox="0 0 1200 1200">
  <defs>
    <style>
      .cls-1 {
        fill: #fff;
      }
    </style>
  </defs>
  <path class="cls-1" d="M0,294.34v150.7h45.99v-104.72h104.72v-45.99H0Z"/>
  <path class="cls-1" d="M1049.29,294.34v46.7l104.72-.71-.71,104.72h46.7v-150.7h-150.71Z"/>
  <path class="cls-1" d="M0,754.95v150.7h150.7v-46.7l-104.72.71.71-104.72H0Z"/>
  <path class="cls-1" d="M1153.3,754.95l.71,104.72-104.72-.71v46.7h150.7v-150.7h-46.7Z"/>
  <path class="cls-1" d="M349.92,474.2c-79.08,1.1-160.37,47.44-232.2,126.78,126.23,177.54,300.59,154.94,439.39,0-60.57-88.94-132.9-127.82-207.18-126.78ZM337.41,503.18c53.79,0,97.34,43.38,97.34,97.18s-43.53,97.64-97.34,97.64-97.64-43.83-97.64-97.64,43.83-97.18,97.64-97.18Z"/>
  <path class="cls-1" d="M400.62,607.14c0,20.03-16.08,36.44-36.11,36.44s-36.11-16.41-36.11-36.44,16.08-36.11,36.11-36.11,36.11,16.08,36.11,36.11Z"/>
  <path class="cls-1" d="M875.09,474.2c-79.08,1.1-160.37,47.44-232.2,126.78,126.23,177.54,300.59,154.94,439.39,0-60.57-88.94-132.9-127.82-207.18-126.78ZM862.58,503.18c53.79,0,97.34,43.38,97.34,97.18s-43.53,97.64-97.34,97.64-97.64-43.83-97.64-97.64,43.83-97.18,97.64-97.18Z"/>
  <path class="cls-1" d="M925.79,607.14c0,20.03-16.08,36.44-36.11,36.44s-36.11-16.41-36.11-36.44,16.08-36.11,36.11-36.11,36.11,16.08,36.11,36.11Z"/>
</svg>