<?xml version="1.0" standalone="no"?><svg xmlns:xlink="http://www.w3.org/1999/xlink" xmlns="http://www.w3.org/2000/svg" viewBox="0 0 1000 538.4615384615385" preserveAspectRatio="xMaxYMax slice"><g transform="scale(0.9267840593141798)"><rect x="0" y="0" width="1079" height="581" fill="#020303"/><rect x="0" y="0" width="83" height="83" fill="#020303"/><path d="M 0 83 A 83 83 0 0 1  83 0 L 83 83" fill="#1d1d1d"/><rect x="83" y="0" width="83" height="83" fill="#0f1010"/><path d="M 83 83 A 83 83 0 0 1  166 0 L 83 83 A 83 83 0 0 0 166 0" fill="#020303"/><rect x="166" y="0" width="83" height="83" fill="#020303"/><path d="M 166 0 A 83 83 0 0 1 249 83 L 166 83" fill="#020303"/><rect x="249" y="0" width="83" height="83" fill="#020303"/><rect x="249" y="0" width="41.5" height="41.5" fill="#020303"/><path d="M 249 0 A 41.5 41.5 0 0 1 290.5 41.5 L 249 41.5" fill="#020303"/><rect x="290.5" y="0" width="41.5" height="41.5" fill="#161616"/><path d="M 290.5 0 A 41.5 41.5 0 0 0 332 41.5 L 332 0" fill="#020303"/><rect x="249" y="41.5" width="41.5" height="41.5" fill="#020303"/><path d="M 249 41.5 A 41.5 41.5 0 0 1  290.5 83 L 249 41.5 A 41.5 41.5 0 0 0 290.5 83" fill="#020303"/><rect x="290.5" y="41.5" width="41.5" height="41.5" fill="#060707"/><path d="M 290.5 83 A 41.5 41.5 0 0 0 332 41.5 L 290.5 41.5" fill="#020303"/><rect x="332" y="0" width="83" height="83" fill="#111212"/><path d="M 332 0 A 83 83 0 0 1 415 83 L 332 83" fill="#080808"/><rect x="415" y="0" width="83" height="83" fill="#020303"/><path d="M 415 83 A 83 83 0 0 1  498 0 L 415 83 A 83 83 0 0 0 498 0" fill="#020303"/><rect x="498" y="0" width="83" height="83" fill="#050606"/><path d="M 498 83 A 83 83 0 0 1  581 0 L 498 83 A 83 83 0 0 0 581 0" fill="#0d0d0d"/><rect x="581" y="0" width="83" height="83" fill="#020303"/><rect x="581" y="0" width="41.5" height="41.5" fill="#020303"/><path d="M 581 41.5 A 41.5 41.5 0 0 0 622.5 0 L 581 0" fill="#020303"/><rect x="622.5" y="0" width="41.5" height="41.5" fill="#050606"/><path d="M 622.5 0 A 41.5 41.5 0 0 1 664 41.5 L 622.5 41.5" fill="#020303"/><rect x="581" y="41.5" width="41.5" height="41.5" fill="#020303"/><path d="M 581 41.5 A 41.5 41.5 0 0 0 622.5 83 L 622.5 41.5" fill="#020303"/><rect x="622.5" y="41.5" width="41.5" height="41.5" fill="#020303"/><path d="M 622.5 83 A 41.5 41.5 0 0 0 664 41.5 L 622.5 41.5" fill="#020303"/><rect x="664" y="0" width="83" height="83" fill="#020303"/><rect x="664" y="0" width="41.5" height="41.5" fill="#020303"/><path d="M 664 0 A 41.5 41.5 0 0 1  705.5 41.5 L 664 0 A 41.5 41.5 0 0 0 705.5 41.5" fill="#020303"/><rect x="705.5" y="0" width="41.5" height="41.5" fill="#020303"/><path d="M 705.5 0 A 41.5 41.5 0 0 1  747 41.5 L 705.5 0 A 41.5 41.5 0 0 0 747 41.5" fill="#1d1d1d"/><rect x="664" y="41.5" width="41.5" height="41.5" fill="#030404"/><path d="M 664 83 A 41.5 41.5 0 0 1  705.5 41.5 L 664 83 A 41.5 41.5 0 0 0 705.5 41.5" fill="#020303"/><rect x="705.5" y="41.5" width="41.5" height="41.5" fill="#020303"/><path d="M 705.5 83 A 41.5 41.5 0 0 1  747 41.5 L 747 83" fill="#060707"/><rect x="747" y="0" width="83" height="83" fill="#020303"/><rect x="747" y="0" width="41.5" height="41.5" fill="#020303"/><path d="M 747 0 A 41.5 41.5 0 0 1 788.5 41.5 L 747 41.5" fill="#181919"/><rect x="788.5" y="0" width="41.5" height="41.5" fill="#131414"/><path d="M 788.5 0 A 41.5 41.5 0 0 1  830 41.5 L 788.5 0 A 41.5 41.5 0 0 0 830 41.5" fill="#121212"/><rect x="747" y="41.5" width="41.5" height="41.5" fill="#080909"/><path d="M 747 83 A 41.5 41.5 0 0 0 788.5 41.5 L 747 41.5" fill="#020303"/><rect x="788.5" y="41.5" width="41.5" height="41.5" fill="#020303"/><path d="M 788.5 41.5 A 41.5 41.5 0 0 1  830 83 L 788.5 41.5 A 41.5 41.5 0 0 0 830 83" fill="#1e1e1e"/><rect x="830" y="0" width="83" height="83" fill="#020303"/><rect x="830" y="0" width="41.5" height="41.5" fill="#0f1010"/><path d="M 830 41.5 A 41.5 41.5 0 0 0 871.5 0 L 830 0" fill="#0e0e0e"/><rect x="871.5" y="0" width="41.5" height="41.5" fill="#1d1d1d"/><path d="M 871.5 0 A 41.5 41.5 0 0 1 913 41.5 L 871.5 41.5" fill="#202020"/><rect x="830" y="41.5" width="41.5" height="41.5" fill="#1d1d1d"/><path d="M 830 83 A 41.5 41.5 0 0 1  871.5 41.5 L 871.5 83" fill="#020303"/><rect x="871.5" y="41.5" width="41.5" height="41.5" fill="#101010"/><path d="M 871.5 41.5 A 41.5 41.5 0 0 1  913 83 L 871.5 41.5 A 41.5 41.5 0 0 0 913 83" fill="#020303"/><rect x="913" y="0" width="83" height="83" fill="#020303"/><path d="M 913 83 A 83 83 0 0 1  996 0 L 996 83" fill="#111212"/><rect x="996" y="0" width="83" height="83" fill="#020303"/><path d="M 996 83 A 83 83 0 0 0 1079 0 L 996 0" fill="#0f1010"/><rect x="0" y="83" width="83" height="83" fill="#020303"/><rect x="0" y="83" width="41.5" height="41.5" fill="#020303"/><path d="M 0 124.5 A 41.5 41.5 0 0 1  41.5 83 L 0 124.5 A 41.5 41.5 0 0 0 41.5 83" fill="#050606"/><rect x="41.5" y="83" width="41.5" height="41.5" fill="#1c1c1c"/><path d="M 41.5 124.5 A 41.5 41.5 0 0 1  83 83 L 83 124.5" fill="#020303"/><rect x="0" y="124.5" width="41.5" height="41.5" fill="#181818"/><path d="M 0 166 A 41.5 41.5 0 0 1  41.5 124.5 L 41.5 166" fill="#020303"/><rect x="41.5" y="124.5" width="41.5" height="41.5" fill="#020303"/><path d="M 41.5 166 A 41.5 41.5 0 0 1  83 124.5 L 41.5 166 A 41.5 41.5 0 0 0 83 124.5" fill="#101010"/><rect x="83" y="83" width="83" height="83" fill="#020303"/><rect x="83" y="83" width="41.5" height="41.5" fill="#020303"/><path d="M 83 83 A 41.5 41.5 0 0 1  124.5 124.5 L 83 83 A 41.5 41.5 0 0 0 124.5 124.5" fill="#1c1c1c"/><rect x="124.5" y="83" width="41.5" height="41.5" fill="#0b0b0b"/><path d="M 124.5 83 A 41.5 41.5 0 0 0 166 124.5 L 166 83" fill="#020303"/><rect x="83" y="124.5" width="41.5" height="41.5" fill="#121313"/><path d="M 83 124.5 A 41.5 41.5 0 0 1 124.5 166 L 83 166" fill="#181818"/><rect x="124.5" y="124.5" width="41.5" height="41.5" fill="#171717"/><path d="M 124.5 166 A 41.5 41.5 0 0 0 166 124.5 L 124.5 124.5" fill="#020303"/><rect x="166" y="83" width="83" height="83" fill="#020303"/><rect x="166" y="83" width="41.5" height="41.5" fill="#050606"/><path d="M 166 83 A 41.5 41.5 0 0 1  207.5 124.5 L 166 83 A 41.5 41.5 0 0 0 207.5 124.5" fill="#131414"/><rect x="207.5" y="83" width="41.5" height="41.5" fill="#111111"/><path d="M 207.5 83 A 41.5 41.5 0 0 0 249 124.5 L 249 83" fill="#1c1c1c"/><rect x="166" y="124.5" width="41.5" height="41.5" fill="#1d1d1d"/><path d="M 166 166 A 41.5 41.5 0 0 1  207.5 124.5 L 207.5 166" fill="#101010"/><rect x="207.5" y="124.5" width="41.5" height="41.5" fill="#020303"/><path d="M 207.5 166 A 41.5 41.5 0 0 0 249 124.5 L 207.5 124.5" fill="#020303"/><rect x="249" y="83" width="83" height="83" fill="#020303"/><path d="M 249 166 A 83 83 0 0 0 332 83 L 249 83" fill="#020303"/><rect x="332" y="83" width="83" height="83" fill="#020303"/><path d="M 332 166 A 83 83 0 0 0 415 83 L 332 83" fill="#020303"/><rect x="415" y="83" width="83" height="83" fill="#020303"/><rect x="415" y="83" width="41.5" height="41.5" fill="#1e1e1e"/><path d="M 415 83 A 41.5 41.5 0 0 0 456.5 124.5 L 456.5 83" fill="#020303"/><rect x="456.5" y="83" width="41.5" height="41.5" fill="#020303"/><path d="M 456.5 83 A 41.5 41.5 0 0 1 498 124.5 L 456.5 124.5" fill="#020303"/><rect x="415" y="124.5" width="41.5" height="41.5" fill="#020303"/><path d="M 415 166 A 41.5 41.5 0 0 0 456.5 124.5 L 415 124.5" fill="#020303"/><rect x="456.5" y="124.5" width="41.5" height="41.5" fill="#020303"/><path d="M 456.5 166 A 41.5 41.5 0 0 0 498 124.5 L 456.5 124.5" fill="#0f1010"/><rect x="498" y="83" width="83" height="83" fill="#131313"/><path d="M 498 83 A 83 83 0 0 1 581 166 L 498 166" fill="#212121"/><rect x="581" y="83" width="83" height="83" fill="#020303"/><path d="M 581 166 A 83 83 0 0 1  664 83 L 664 166" fill="#181818"/><rect x="664" y="83" width="83" height="83" fill="#020303"/><path d="M 664 83 A 83 83 0 0 1  747 166 L 664 83 A 83 83 0 0 0 747 166" fill="#070808"/><rect x="747" y="83" width="83" height="83" fill="#1c1c1c"/><path d="M 747 83 A 83 83 0 0 0 830 166 L 830 83" fill="#0b0c0c"/><rect x="830" y="83" width="83" height="83" fill="#020303"/><rect x="830" y="83" width="41.5" height="41.5" fill="#070808"/><path d="M 830 124.5 A 41.5 41.5 0 0 1  871.5 83 L 830 124.5 A 41.5 41.5 0 0 0 871.5 83" fill="#020303"/><rect x="871.5" y="83" width="41.5" height="41.5" fill="#020303"/><path d="M 871.5 124.5 A 41.5 41.5 0 0 1  913 83 L 913 124.5" fill="#020303"/><rect x="830" y="124.5" width="41.5" height="41.5" fill="#030404"/><path d="M 830 124.5 A 41.5 41.5 0 0 1  871.5 166 L 830 124.5 A 41.5 41.5 0 0 0 871.5 166" fill="#020303"/><rect x="871.5" y="124.5" width="41.5" height="41.5" fill="#020303"/><path d="M 871.5 124.5 A 41.5 41.5 0 0 1  913 166 L 871.5 124.5 A 41.5 41.5 0 0 0 913 166" fill="#1c1c1c"/><rect x="913" y="83" width="83" height="83" fill="#020303"/><rect x="913" y="83" width="41.5" height="41.5" fill="#020303"/><path d="M 913 124.5 A 41.5 41.5 0 0 1  954.5 83 L 913 124.5 A 41.5 41.5 0 0 0 954.5 83" fill="#121212"/><rect x="954.5" y="83" width="41.5" height="41.5" fill="#111111"/><path d="M 954.5 83 A 41.5 41.5 0 0 1 996 124.5 L 954.5 124.5" fill="#131313"/><rect x="913" y="124.5" width="41.5" height="41.5" fill="#181919"/><path d="M 913 124.5 A 41.5 41.5 0 0 1  954.5 166 L 913 124.5 A 41.5 41.5 0 0 0 954.5 166" fill="#0d0e0e"/><rect x="954.5" y="124.5" width="41.5" height="41.5" fill="#050606"/><path d="M 954.5 166 A 41.5 41.5 0 0 0 996 124.5 L 954.5 124.5" fill="#020303"/><rect x="996" y="83" width="83" height="83" fill="#020303"/><path d="M 996 166 A 83 83 0 0 1  1079 83 L 996 166 A 83 83 0 0 0 1079 83" fill="#0d0e0e"/><rect x="0" y="166" width="83" height="83" fill="#020303"/><path d="M 0 166 A 83 83 0 0 1 83 249 L 0 249" fill="#080909"/><rect x="83" y="166" width="83" height="83" fill="#020303"/><path d="M 83 249 A 83 83 0 0 1  166 166 L 83 249 A 83 83 0 0 0 166 166" fill="#020303"/><rect x="166" y="166" width="83" height="83" fill="#060707"/><path d="M 166 249 A 83 83 0 0 1  249 166 L 249 249" fill="#121313"/><rect x="249" y="166" width="83" height="83" fill="#020303"/><rect x="249" y="166" width="41.5" height="41.5" fill="#070808"/><path d="M 249 166 A 41.5 41.5 0 0 1 290.5 207.5 L 249 207.5" fill="#040505"/><rect x="290.5" y="166" width="41.5" height="41.5" fill="#131313"/><path d="M 290.5 207.5 A 41.5 41.5 0 0 1  332 166 L 290.5 207.5 A 41.5 41.5 0 0 0 332 166" fill="#020303"/><rect x="249" y="207.5" width="41.5" height="41.5" fill="#040505"/><path d="M 249 249 A 41.5 41.5 0 0 1  290.5 207.5 L 249 249 A 41.5 41.5 0 0 0 290.5 207.5" fill="#020303"/><rect x="290.5" y="207.5" width="41.5" height="41.5" fill="#0d0e0e"/><path d="M 290.5 207.5 A 41.5 41.5 0 0 1 332 249 L 290.5 249" fill="#020303"/><rect x="332" y="166" width="83" height="83" fill="#020303"/><path d="M 332 249 A 83 83 0 0 1  415 166 L 415 249" fill="#131414"/><rect x="415" y="166" width="83" height="83" fill="#020303"/><path d="M 415 166 A 83 83 0 0 1  498 249 L 415 166 A 83 83 0 0 0 498 249" fill="#222222"/><rect x="498" y="166" width="83" height="83" fill="#0c0c0c"/><path d="M 498 166 A 83 83 0 0 1  581 249 L 498 166 A 83 83 0 0 0 581 249" fill="#161616"/><rect x="581" y="166" width="83" height="83" fill="#060707"/><path d="M 581 249 A 83 83 0 0 0 664 166 L 581 166" fill="#212121"/><rect x="664" y="166" width="83" height="83" fill="#0a0a0a"/><path d="M 664 249 A 83 83 0 0 1  747 166 L 664 249 A 83 83 0 0 0 747 166" fill="#020303"/><rect x="747" y="166" width="83" height="83" fill="#151515"/><path d="M 747 166 A 83 83 0 0 1 830 249 L 747 249" fill="#212121"/><rect x="830" y="166" width="83" height="83" fill="#020303"/><path d="M 830 249 A 83 83 0 0 0 913 166 L 830 166" fill="#020303"/><rect x="913" y="166" width="83" height="83" fill="#060707"/><path d="M 913 166 A 83 83 0 0 0 996 249 L 996 166" fill="#111212"/><rect x="996" y="166" width="83" height="83" fill="#212121"/><path d="M 996 249 A 83 83 0 0 0 1079 166 L 996 166" fill="#020303"/><rect x="0" y="249" width="83" height="83" fill="#020303"/><path d="M 0 249 A 83 83 0 0 1  83 332 L 0 249 A 83 83 0 0 0 83 332" fill="#020303"/><rect x="83" y="249" width="83" height="83" fill="#0e0e0e"/><path d="M 83 332 A 83 83 0 0 1  166 249 L 83 332 A 83 83 0 0 0 166 249" fill="#020303"/><rect x="166" y="249" width="83" height="83" fill="#111212"/><path d="M 166 332 A 83 83 0 0 0 249 249 L 166 249" fill="#1d1d1d"/><rect x="249" y="249" width="83" height="83" fill="#121212"/><path d="M 249 249 A 83 83 0 0 0 332 332 L 332 249" fill="#202020"/><rect x="332" y="249" width="83" height="83" fill="#0a0b0b"/><path d="M 332 332 A 83 83 0 0 0 415 249 L 332 249" fill="#111212"/><rect x="415" y="249" width="83" height="83" fill="#020303"/><rect x="415" y="249" width="41.5" height="41.5" fill="#121212"/><path d="M 415 249 A 41.5 41.5 0 0 1  456.5 290.5 L 415 249 A 41.5 41.5 0 0 0 456.5 290.5" fill="#020303"/><rect x="456.5" y="249" width="41.5" height="41.5" fill="#020303"/><path d="M 456.5 249 A 41.5 41.5 0 0 0 498 290.5 L 498 249" fill="#1b1b1b"/><rect x="415" y="290.5" width="41.5" height="41.5" fill="#020303"/><path d="M 415 332 A 41.5 41.5 0 0 1  456.5 290.5 L 456.5 332" fill="#020303"/><rect x="456.5" y="290.5" width="41.5" height="41.5" fill="#181818"/><path d="M 456.5 290.5 A 41.5 41.5 0 0 1 498 332 L 456.5 332" fill="#020303"/><rect x="498" y="249" width="83" height="83" fill="#020303"/><path d="M 498 249 A 83 83 0 0 1 581 332 L 498 332" fill="#020303"/><rect x="581" y="249" width="83" height="83" fill="#040505"/><path d="M 581 332 A 83 83 0 0 1  664 249 L 581 332 A 83 83 0 0 0 664 249" fill="#1d1e1e"/><rect x="664" y="249" width="83" height="83" fill="#1a1a1a"/><path d="M 664 332 A 83 83 0 0 1  747 249 L 747 332" fill="#020303"/><rect x="747" y="249" width="83" height="83" fill="#020303"/><rect x="747" y="249" width="41.5" height="41.5" fill="#090909"/><path d="M 747 249 A 41.5 41.5 0 0 0 788.5 290.5 L 788.5 249" fill="#020303"/><rect x="788.5" y="249" width="41.5" height="41.5" fill="#020303"/><path d="M 788.5 249 A 41.5 41.5 0 0 1 830 290.5 L 788.5 290.5" fill="#020303"/><rect x="747" y="290.5" width="41.5" height="41.5" fill="#070808"/><path d="M 747 332 A 41.5 41.5 0 0 0 788.5 290.5 L 747 290.5" fill="#1e1e1e"/><rect x="788.5" y="290.5" width="41.5" height="41.5" fill="#020303"/><path d="M 788.5 332 A 41.5 41.5 0 0 0 830 290.5 L 788.5 290.5" fill="#121313"/><rect x="830" y="249" width="83" height="83" fill="#020303"/><rect x="830" y="249" width="41.5" height="41.5" fill="#1c1c1c"/><path d="M 830 290.5 A 41.5 41.5 0 0 0 871.5 249 L 830 249" fill="#1b1b1b"/><rect x="871.5" y="249" width="41.5" height="41.5" fill="#191919"/><path d="M 871.5 290.5 A 41.5 41.5 0 0 1  913 249 L 913 290.5" fill="#020303"/><rect x="830" y="290.5" width="41.5" height="41.5" fill="#020303"/><path d="M 830 332 A 41.5 41.5 0 0 0 871.5 290.5 L 830 290.5" fill="#020303"/><rect x="871.5" y="290.5" width="41.5" height="41.5" fill="#020303"/><path d="M 871.5 290.5 A 41.5 41.5 0 0 0 913 332 L 913 290.5" fill="#141414"/><rect x="913" y="249" width="83" height="83" fill="#020303"/><rect x="913" y="249" width="41.5" height="41.5" fill="#050606"/><path d="M 913 249 A 41.5 41.5 0 0 1 954.5 290.5 L 913 290.5" fill="#020303"/><rect x="954.5" y="249" width="41.5" height="41.5" fill="#020303"/><path d="M 954.5 249 A 41.5 41.5 0 0 0 996 290.5 L 996 249" fill="#020303"/><rect x="913" y="290.5" width="41.5" height="41.5" fill="#050606"/><path d="M 913 332 A 41.5 41.5 0 0 0 954.5 290.5 L 913 290.5" fill="#080909"/><rect x="954.5" y="290.5" width="41.5" height="41.5" fill="#020303"/><path d="M 954.5 290.5 A 41.5 41.5 0 0 1 996 332 L 954.5 332" fill="#020303"/><rect x="996" y="249" width="83" height="83" fill="#181818"/><path d="M 996 332 A 83 83 0 0 1  1079 249 L 996 332 A 83 83 0 0 0 1079 249" fill="#020303"/><rect x="0" y="332" width="83" height="83" fill="#020303"/><path d="M 0 415 A 83 83 0 0 1  83 332 L 0 415 A 83 83 0 0 0 83 332" fill="#050606"/><rect x="83" y="332" width="83" height="83" fill="#020303"/><rect x="83" y="332" width="41.5" height="41.5" fill="#020303"/><path d="M 83 332 A 41.5 41.5 0 0 1  124.5 373.5 L 83 332 A 41.5 41.5 0 0 0 124.5 373.5" fill="#0f1010"/><rect x="124.5" y="332" width="41.5" height="41.5" fill="#020303"/><path d="M 124.5 373.5 A 41.5 41.5 0 0 0 166 332 L 124.5 332" fill="#020303"/><rect x="83" y="373.5" width="41.5" height="41.5" fill="#020303"/><path d="M 83 373.5 A 41.5 41.5 0 0 1 124.5 415 L 83 415" fill="#0d0e0e"/><rect x="124.5" y="373.5" width="41.5" height="41.5" fill="#020303"/><path d="M 124.5 415 A 41.5 41.5 0 0 1  166 373.5 L 124.5 415 A 41.5 41.5 0 0 0 166 373.5" fill="#111111"/><rect x="166" y="332" width="83" height="83" fill="#020303"/><path d="M 166 332 A 83 83 0 0 1  249 415 L 166 332 A 83 83 0 0 0 249 415" fill="#020303"/><rect x="249" y="332" width="83" height="83" fill="#020303"/><rect x="249" y="332" width="41.5" height="41.5" fill="#020303"/><path d="M 249 373.5 A 41.5 41.5 0 0 0 290.5 332 L 249 332" fill="#1f1f1f"/><rect x="290.5" y="332" width="41.5" height="41.5" fill="#020303"/><path d="M 290.5 373.5 A 41.5 41.5 0 0 1  332 332 L 290.5 373.5 A 41.5 41.5 0 0 0 332 332" fill="#080909"/><rect x="249" y="373.5" width="41.5" height="41.5" fill="#020303"/><path d="M 249 415 A 41.5 41.5 0 0 1  290.5 373.5 L 290.5 415" fill="#020303"/><rect x="290.5" y="373.5" width="41.5" height="41.5" fill="#020303"/><path d="M 290.5 415 A 41.5 41.5 0 0 1  332 373.5 L 290.5 415 A 41.5 41.5 0 0 0 332 373.5" fill="#020303"/><rect x="332" y="332" width="83" height="83" fill="#020303"/><path d="M 332 332 A 83 83 0 0 1 415 415 L 332 415" fill="#020303"/><rect x="415" y="332" width="83" height="83" fill="#020303"/><path d="M 415 415 A 83 83 0 0 0 498 332 L 415 332" fill="#070808"/><rect x="498" y="332" width="83" height="83" fill="#020303"/><path d="M 498 332 A 83 83 0 0 1  581 415 L 498 332 A 83 83 0 0 0 581 415" fill="#111212"/><rect x="581" y="332" width="83" height="83" fill="#020303"/><path d="M 581 332 A 83 83 0 0 1 664 415 L 581 415" fill="#070808"/><rect x="664" y="332" width="83" height="83" fill="#181919"/><path d="M 664 415 A 83 83 0 0 1  747 332 L 664 415 A 83 83 0 0 0 747 332" fill="#020303"/><rect x="747" y="332" width="83" height="83" fill="#020303"/><path d="M 747 332 A 83 83 0 0 1 830 415 L 747 415" fill="#050606"/><rect x="830" y="332" width="83" height="83" fill="#020303"/><path d="M 830 415 A 83 83 0 0 1  913 332 L 913 415" fill="#020303"/><rect x="913" y="332" width="83" height="83" fill="#020303"/><path d="M 913 332 A 83 83 0 0 1  996 415 L 913 332 A 83 83 0 0 0 996 415" fill="#020303"/><rect x="996" y="332" width="83" height="83" fill="#121212"/><path d="M 996 415 A 83 83 0 0 0 1079 332 L 996 332" fill="#131313"/><rect x="0" y="415" width="83" height="83" fill="#121313"/><path d="M 0 498 A 83 83 0 0 1  83 415 L 0 498 A 83 83 0 0 0 83 415" fill="#1d1d1d"/><rect x="83" y="415" width="83" height="83" fill="#151515"/><path d="M 83 498 A 83 83 0 0 1  166 415 L 83 498 A 83 83 0 0 0 166 415" fill="#020303"/><rect x="166" y="415" width="83" height="83" fill="#020303"/><rect x="166" y="415" width="41.5" height="41.5" fill="#1d1d1d"/><path d="M 166 415 A 41.5 41.5 0 0 0 207.5 456.5 L 207.5 415" fill="#020303"/><rect x="207.5" y="415" width="41.5" height="41.5" fill="#171818"/><path d="M 207.5 415 A 41.5 41.5 0 0 1 249 456.5 L 207.5 456.5" fill="#090a0a"/><rect x="166" y="456.5" width="41.5" height="41.5" fill="#070808"/><path d="M 166 498 A 41.5 41.5 0 0 1  207.5 456.5 L 166 498 A 41.5 41.5 0 0 0 207.5 456.5" fill="#060707"/><rect x="207.5" y="456.5" width="41.5" height="41.5" fill="#020303"/><path d="M 207.5 498 A 41.5 41.5 0 0 1  249 456.5 L 207.5 498 A 41.5 41.5 0 0 0 249 456.5" fill="#1e1e1e"/><rect x="249" y="415" width="83" height="83" fill="#0f1010"/><path d="M 249 498 A 83 83 0 0 1  332 415 L 332 498" fill="#181919"/><rect x="332" y="415" width="83" height="83" fill="#020303"/><path d="M 332 415 A 83 83 0 0 1  415 498 L 332 415 A 83 83 0 0 0 415 498" fill="#212121"/><rect x="415" y="415" width="83" height="83" fill="#020303"/><rect x="415" y="415" width="41.5" height="41.5" fill="#020303"/><path d="M 415 456.5 A 41.5 41.5 0 0 0 456.5 415 L 415 415" fill="#202020"/><rect x="456.5" y="415" width="41.5" height="41.5" fill="#020303"/><path d="M 456.5 456.5 A 41.5 41.5 0 0 1  498 415 L 456.5 456.5 A 41.5 41.5 0 0 0 498 415" fill="#0c0d0d"/><rect x="415" y="456.5" width="41.5" height="41.5" fill="#020303"/><path d="M 415 456.5 A 41.5 41.5 0 0 0 456.5 498 L 456.5 456.5" fill="#020303"/><rect x="456.5" y="456.5" width="41.5" height="41.5" fill="#020303"/><path d="M 456.5 456.5 A 41.5 41.5 0 0 0 498 498 L 498 456.5" fill="#020303"/><rect x="498" y="415" width="83" height="83" fill="#020303"/><path d="M 498 498 A 83 83 0 0 1  581 415 L 581 498" fill="#060707"/><rect x="581" y="415" width="83" height="83" fill="#020303"/><path d="M 581 415 A 83 83 0 0 1  664 498 L 581 415 A 83 83 0 0 0 664 498" fill="#020303"/><rect x="664" y="415" width="83" height="83" fill="#171717"/><path d="M 664 498 A 83 83 0 0 1  747 415 L 747 498" fill="#020303"/><rect x="747" y="415" width="83" height="83" fill="#1e1e1e"/><path d="M 747 498 A 83 83 0 0 1  830 415 L 747 498 A 83 83 0 0 0 830 415" fill="#020303"/><rect x="830" y="415" width="83" height="83" fill="#020303"/><path d="M 830 498 A 83 83 0 0 1  913 415 L 913 498" fill="#1e1e1e"/><rect x="913" y="415" width="83" height="83" fill="#020303"/><rect x="913" y="415" width="41.5" height="41.5" fill="#020303"/><path d="M 913 415 A 41.5 41.5 0 0 1  954.5 456.5 L 913 415 A 41.5 41.5 0 0 0 954.5 456.5" fill="#141414"/><rect x="954.5" y="415" width="41.5" height="41.5" fill="#111111"/><path d="M 954.5 456.5 A 41.5 41.5 0 0 1  996 415 L 954.5 456.5 A 41.5 41.5 0 0 0 996 415" fill="#1b1b1b"/><rect x="913" y="456.5" width="41.5" height="41.5" fill="#212121"/><path d="M 913 498 A 41.5 41.5 0 0 1  954.5 456.5 L 954.5 498" fill="#141414"/><rect x="954.5" y="456.5" width="41.5" height="41.5" fill="#020303"/><path d="M 954.5 498 A 41.5 41.5 0 0 1  996 456.5 L 996 498" fill="#020303"/><rect x="996" y="415" width="83" height="83" fill="#020303"/><path d="M 996 498 A 83 83 0 0 0 1079 415 L 996 415" fill="#151515"/><rect x="0" y="498" width="83" height="83" fill="#020303"/><path d="M 0 498 A 83 83 0 0 1  83 581 L 0 498 A 83 83 0 0 0 83 581" fill="#020303"/><rect x="83" y="498" width="83" height="83" fill="#020303"/><rect x="83" y="498" width="41.5" height="41.5" fill="#161616"/><path d="M 83 539.5 A 41.5 41.5 0 0 1  124.5 498 L 124.5 539.5" fill="#020303"/><rect x="124.5" y="498" width="41.5" height="41.5" fill="#020303"/><path d="M 124.5 539.5 A 41.5 41.5 0 0 0 166 498 L 124.5 498" fill="#151515"/><rect x="83" y="539.5" width="41.5" height="41.5" fill="#020303"/><path d="M 83 581 A 41.5 41.5 0 0 1  124.5 539.5 L 83 581 A 41.5 41.5 0 0 0 124.5 539.5" fill="#1f1f1f"/><rect x="124.5" y="539.5" width="41.5" height="41.5" fill="#020303"/><path d="M 124.5 581 A 41.5 41.5 0 0 1  166 539.5 L 124.5 581 A 41.5 41.5 0 0 0 166 539.5" fill="#1e1e1e"/><rect x="166" y="498" width="83" height="83" fill="#020303"/><path d="M 166 498 A 83 83 0 0 0 249 581 L 249 498" fill="#020303"/><rect x="249" y="498" width="83" height="83" fill="#151515"/><path d="M 249 581 A 83 83 0 0 0 332 498 L 249 498" fill="#1b1b1b"/><rect x="332" y="498" width="83" height="83" fill="#020303"/><rect x="332" y="498" width="41.5" height="41.5" fill="#020303"/><path d="M 332 539.5 A 41.5 41.5 0 0 1  373.5 498 L 373.5 539.5" fill="#020303"/><rect x="373.5" y="498" width="41.5" height="41.5" fill="#020303"/><path d="M 373.5 498 A 41.5 41.5 0 0 1  415 539.5 L 373.5 498 A 41.5 41.5 0 0 0 415 539.5" fill="#020303"/><rect x="332" y="539.5" width="41.5" height="41.5" fill="#191919"/><path d="M 332 539.5 A 41.5 41.5 0 0 1 373.5 581 L 332 581" fill="#020303"/><rect x="373.5" y="539.5" width="41.5" height="41.5" fill="#0b0c0c"/><path d="M 373.5 581 A 41.5 41.5 0 0 1  415 539.5 L 415 581" fill="#070808"/><rect x="415" y="498" width="83" height="83" fill="#020303"/><path d="M 415 581 A 83 83 0 0 1  498 498 L 498 581" fill="#020303"/><rect x="498" y="498" width="83" height="83" fill="#020303"/><rect x="498" y="498" width="41.5" height="41.5" fill="#020303"/><path d="M 498 539.5 A 41.5 41.5 0 0 1  539.5 498 L 539.5 539.5" fill="#020303"/><rect x="539.5" y="498" width="41.5" height="41.5" fill="#020303"/><path d="M 539.5 498 A 41.5 41.5 0 0 0 581 539.5 L 581 498" fill="#020303"/><rect x="498" y="539.5" width="41.5" height="41.5" fill="#020303"/><path d="M 498 539.5 A 41.5 41.5 0 0 0 539.5 581 L 539.5 539.5" fill="#0d0e0e"/><rect x="539.5" y="539.5" width="41.5" height="41.5" fill="#0f0f0f"/><path d="M 539.5 581 A 41.5 41.5 0 0 1  581 539.5 L 539.5 581 A 41.5 41.5 0 0 0 581 539.5" fill="#020303"/><rect x="581" y="498" width="83" height="83" fill="#070808"/><path d="M 581 498 A 83 83 0 0 0 664 581 L 664 498" fill="#020303"/><rect x="664" y="498" width="83" height="83" fill="#020303"/><rect x="664" y="498" width="41.5" height="41.5" fill="#020303"/><path d="M 664 539.5 A 41.5 41.5 0 0 0 705.5 498 L 664 498" fill="#020303"/><rect x="705.5" y="498" width="41.5" height="41.5" fill="#0a0b0b"/><path d="M 705.5 498 A 41.5 41.5 0 0 1  747 539.5 L 705.5 498 A 41.5 41.5 0 0 0 747 539.5" fill="#020303"/><rect x="664" y="539.5" width="41.5" height="41.5" fill="#020303"/><path d="M 664 539.5 A 41.5 41.5 0 0 0 705.5 581 L 705.5 539.5" fill="#1d1d1d"/><rect x="705.5" y="539.5" width="41.5" height="41.5" fill="#020303"/><path d="M 705.5 581 A 41.5 41.5 0 0 1  747 539.5 L 705.5 581 A 41.5 41.5 0 0 0 747 539.5" fill="#0a0b0b"/><rect x="747" y="498" width="83" height="83" fill="#080909"/><path d="M 747 498 A 83 83 0 0 0 830 581 L 830 498" fill="#020303"/><rect x="830" y="498" width="83" height="83" fill="#101111"/><path d="M 830 581 A 83 83 0 0 1  913 498 L 830 581 A 83 83 0 0 0 913 498" fill="#141414"/><rect x="913" y="498" width="83" height="83" fill="#020303"/><path d="M 913 498 A 83 83 0 0 0 996 581 L 996 498" fill="#020303"/><rect x="996" y="498" width="83" height="83" fill="#020303"/><path d="M 996 581 A 83 83 0 0 0 1079 498 L 996 498" fill="#171717"/></g></svg>