<?xml version="1.0" encoding="UTF-8"?>
<svg width="1200pt" height="1200pt" version="1.1" viewBox="0 0 1200 1200" xmlns="http://www.w3.org/2000/svg">
 <path d="m1125.3 415.37c-38.254-51.574-87.344-94.133-143.82-124.69-56.473-30.559-118.96-48.363-183.05-52.172-1.2812-0.13281-2.5703-0.13281-3.8516 0-28.641-8.9258-58.277-14.281-88.23-15.945-118.39-7.1758-282.09 18.336-359.7 118.52-61.121 78.797-100.85 192.14-112.28 290.6l0.003906 0.003906c-0.13672 1.1484-0.13672 2.3047 0 3.4531-33.277 27.629-71.027 49.379-111.62 64.312-27.566 7.9805-53.773 20.074-77.734 35.875-17.047 12.402-30.176 29.438-37.832 49.082-7.6562 19.645-9.5117 41.07-5.3516 61.738 0.4375 3.2422 1.875 6.2617 4.1172 8.6445 2.2383 2.3828 5.168 4.0078 8.375 4.6445h1.4609c92.215 28.566 148.02-22.855 222.96-70.293 1.9648-1.2656 3.7148-2.8359 5.1836-4.6523 34.562 7.6289 67.918 19.969 99.125 36.676 68.164 36.539 121.58 95.406 190.68 130.75 144.44 73.879 270.54-27.902 392.91-100.05 1.5664-0.84375 3-1.9219 4.25-3.1914 71.09 22.324 144.7 38.004 217.12 56.871h0.003906c4.7617 1.3555 9.8711 0.78516 14.215-1.5938 5.1797-0.0625 10.156-2.0156 14-5.4922 3.8398-3.4727 6.2812-8.2305 6.8633-13.375 17.938-157.46 44.113-333.65-57.801-469.71zm-15.281 47.57c73.48 114.8 51.156 270.8 35.742 401.68-70.027-18.07-140.45-35.211-209.95-55.012h0.003906c-20.012-5.7461-39.594-12.895-58.598-21.395 26.574-120.39 79.727-260.84 61.121-384.68-5.2227-40.871-23.059-79.098-51.023-109.36 91.977 27.902 170.96 87.75 222.7 168.75zm-751.94-66.438c63.512-106.84 207.42-137.39 324.35-134.74 61.656 1.0625 126.1 9.0352 171.28 54.348 53.148 53.148 53.148 130.35 42.52 200.38-13.289 85.172-36.539 169.95-55.676 253.93-40.793-21.262-79.727-45.711-121.45-68.828-125.04-68.562-297.51-103.64-438.49-86.504l-3.3203 0.66406c13.004-77.402 40.406-151.68 80.789-218.98zm-300.3 431.31c16.637-16.238 36.383-28.949 58.051-37.375 21.668-8.4258 44.812-12.391 68.047-11.656-40.262 27.77-77.863 52.617-126.1 49.031zm549.04 110.42c-88.098-19.93-151.08-94.742-225.89-140.18-96.602-58.863-229.21-85.039-321.96-22.59 26.574-26.574 75.605-36.672 106.3-50.227h-0.003906c36.824-16.668 70.953-38.75 101.25-65.508 1.7656-1.5469 3.25-3.3906 4.3867-5.4453 2.7539 0.625 5.6172 0.625 8.3711 0 163.7-19.797 341.23 30.961 478.35 117.99 39.109 24.301 80.664 44.43 123.97 60.059-79.723 51.293-180.45 127.16-274.79 105.9z" fill="#fff"/>
</svg>
