<?xml version="1.0" encoding="UTF-8"?>
<svg id="Layer_1" xmlns="http://www.w3.org/2000/svg" viewBox="0 0 680.15 346.49">
  <defs>
    <style>
      .cls-1 {
        fill: #fff;
      }
    </style>
  </defs>
  <path class="cls-1" d="M0,0v85.42h26.07V26.07h59.35V0H0Z"/>
  <path class="cls-1" d="M594.73,0v26.47l59.35-.4-.4,59.35h26.47V0h-85.42Z"/>
  <path class="cls-1" d="M0,261.07v85.42h85.42v-26.47l-59.35.4.4-59.35H0Z"/>
  <path class="cls-1" d="M653.68,261.07l.4,59.35-59.35-.4v26.47h85.42v-85.42h-26.47Z"/>
  <path class="cls-1" d="M198.33,101.94c-44.82.62-90.9,26.89-131.61,71.86,71.55,100.63,170.37,87.82,249.04,0-34.33-50.41-75.32-72.45-117.43-71.86ZM191.24,118.37c30.49,0,55.17,24.59,55.17,55.08s-24.67,55.34-55.17,55.34-55.34-24.84-55.34-55.34,24.84-55.08,55.34-55.08Z"/>
  <path class="cls-1" d="M227.07,177.29c0,11.35-9.11,20.65-20.46,20.65s-20.46-9.3-20.46-20.65,9.11-20.47,20.46-20.47,20.46,9.11,20.46,20.47Z"/>
  <path class="cls-1" d="M495.99,101.94c-44.82.62-90.9,26.89-131.61,71.86,71.55,100.63,170.37,87.82,249.04,0-34.33-50.41-75.32-72.45-117.43-71.86ZM488.9,118.37c30.49,0,55.17,24.59,55.17,55.08s-24.67,55.34-55.17,55.34-55.34-24.84-55.34-55.34,24.84-55.08,55.34-55.08Z"/>
  <path class="cls-1" d="M524.73,177.29c0,11.35-9.11,20.65-20.47,20.65s-20.47-9.3-20.47-20.65,9.11-20.47,20.47-20.47,20.47,9.11,20.47,20.47Z"/>
</svg>